<svg xmlns="http://www.w3.org/2000/svg" xmlns:xlink="http://www.w3.org/1999/xlink" width="500" zoomAndPan="magnify" viewBox="0 0 375 374.999991" height="500" preserveAspectRatio="xMidYMid meet" version="1.0"><defs><clipPath id="f310321c23"><path d="M 137.367188 63.625 L 237.621094 63.625 L 237.621094 311.125 L 137.367188 311.125 Z M 137.367188 63.625 " clip-rule="nonzero"/></clipPath></defs><g clip-path="url(#f310321c23)"><path fill="#fffffd" d="M 163.847656 311.375 C 167.824219 306.679688 171.675781 301.867188 175.492188 297.042969 C 184.328125 285.867188 192.886719 274.46875 201.035156 262.785156 C 210.242188 249.582031 219.0625 236 226.417969 221.664062 C 231.328125 212.085938 236.738281 201.9375 237.535156 191.003906 C 238.136719 182.761719 235.722656 173.125 227.570312 169.464844 C 222.023438 166.972656 215.484375 167.164062 209.554688 167.566406 C 196.910156 168.425781 161.625 176.484375 164.71875 160.511719 C 167.808594 144.535156 205.433594 72.382812 211.101562 63.625 C 207.1875 68.242188 203.398438 72.972656 199.640625 77.71875 C 190.917969 88.742188 182.464844 99.988281 174.40625 111.507812 C 165.242188 124.605469 156.464844 138.070312 149.082031 152.265625 C 143.066406 163.828125 135.101562 179.046875 137.972656 192.511719 C 139.179688 198.175781 141.960938 203.117188 147.425781 205.554688 C 152.960938 208.023438 159.476562 207.832031 165.394531 207.429688 C 178.039062 206.570312 213.320312 198.511719 210.230469 214.488281 C 207.136719 230.464844 169.515625 302.613281 163.847656 311.375 " fill-opacity="1" fill-rule="nonzero"/></g></svg>