<svg xmlns="http://www.w3.org/2000/svg" xmlns:xlink="http://www.w3.org/1999/xlink" width="1500" zoomAndPan="magnify" viewBox="0 0 1125 374.999991" height="500" preserveAspectRatio="xMidYMid meet" version="1.0"><defs><g/><clipPath id="c94cd918f1"><path d="M 198.066406 60.433594 L 305.683594 60.433594 L 305.683594 326.382812 L 198.066406 326.382812 Z M 198.066406 60.433594 " clip-rule="nonzero"/></clipPath><clipPath id="e8dca3cc94"><rect x="0" width="609" y="0" height="360"/></clipPath></defs><g clip-path="url(#c94cd918f1)"><path fill="#fffffd" d="M 226.488281 326.382812 C 230.757812 321.339844 234.890625 316.179688 238.988281 310.996094 C 248.472656 299.003906 257.660156 286.765625 266.40625 274.222656 C 276.292969 260.050781 285.761719 245.472656 293.65625 230.082031 C 298.925781 219.800781 304.734375 208.90625 305.589844 197.167969 C 306.234375 188.324219 303.644531 177.976562 294.890625 174.046875 C 288.9375 171.375 281.921875 171.578125 275.554688 172.011719 C 261.980469 172.933594 224.105469 181.585938 227.425781 164.4375 C 230.742188 147.285156 271.128906 69.835938 277.210938 60.429688 C 273.011719 65.390625 268.945312 70.46875 264.910156 75.5625 C 255.546875 87.398438 246.472656 99.46875 237.824219 111.832031 C 227.988281 125.894531 218.5625 140.347656 210.636719 155.585938 C 204.183594 167.996094 195.632812 184.332031 198.714844 198.789062 C 200.011719 204.867188 202.996094 210.175781 208.859375 212.789062 C 214.804688 215.4375 221.796875 215.234375 228.148438 214.804688 C 241.722656 213.878906 279.597656 205.226562 276.277344 222.378906 C 272.957031 239.527344 232.574219 316.976562 226.488281 326.382812 " fill-opacity="1" fill-rule="nonzero"/></g><g transform="matrix(1, 0, 0, 1, 321, 0)"><g clip-path="url(#e8dca3cc94)"><g fill="#ffffff" fill-opacity="1"><g transform="translate(0.870988, 257.961273)"><g><path d="M 71.9375 0 C 60.09375 0 49.523438 -2.546875 40.234375 -7.640625 C 30.941406 -12.734375 23.597656 -19.585938 18.203125 -28.203125 C 12.804688 -36.828125 10.109375 -46.53125 10.109375 -57.3125 C 10.109375 -68.101562 12.804688 -77.804688 18.203125 -86.421875 C 23.597656 -95.046875 30.941406 -101.90625 40.234375 -107 C 49.523438 -112.09375 60.09375 -114.640625 71.9375 -114.640625 L 85.421875 -114.640625 L 85.421875 -96.875 L 71.25 -96.875 C 63.613281 -96.875 56.757812 -95.113281 50.6875 -91.59375 C 44.613281 -88.070312 39.816406 -83.3125 36.296875 -77.3125 C 32.773438 -71.320312 31.015625 -64.65625 31.015625 -57.3125 C 31.015625 -49.976562 32.773438 -43.3125 36.296875 -37.3125 C 39.816406 -31.320312 44.613281 -26.5625 50.6875 -23.03125 C 56.757812 -19.507812 63.613281 -17.75 71.25 -17.75 L 85.421875 -17.75 L 85.421875 0 Z M 71.9375 0 "/></g></g></g><g fill="#ffffff" fill-opacity="1"><g transform="translate(93.477723, 257.961273)"><g><path d="M 70.359375 2.703125 C 58.671875 2.703125 48.328125 0.0390625 39.328125 -5.28125 C 30.335938 -10.601562 23.21875 -17.796875 17.96875 -26.859375 C 12.726562 -35.921875 10.109375 -46.070312 10.109375 -57.3125 C 10.109375 -68.550781 12.726562 -78.703125 17.96875 -87.765625 C 23.21875 -96.835938 30.335938 -104.03125 39.328125 -109.34375 C 48.328125 -114.664062 58.671875 -117.328125 70.359375 -117.328125 C 82.046875 -117.328125 92.421875 -114.664062 101.484375 -109.34375 C 110.554688 -104.03125 117.675781 -96.878906 122.84375 -87.890625 C 128.007812 -78.898438 130.59375 -68.707031 130.59375 -57.3125 C 130.59375 -46.070312 128.007812 -35.921875 122.84375 -26.859375 C 117.675781 -17.796875 110.554688 -10.601562 101.484375 -5.28125 C 92.421875 0.0390625 82.046875 2.703125 70.359375 2.703125 Z M 70.359375 -15.0625 C 78.296875 -15.0625 85.1875 -16.929688 91.03125 -20.671875 C 96.875 -24.421875 101.441406 -29.476562 104.734375 -35.84375 C 108.035156 -42.21875 109.6875 -49.375 109.6875 -57.3125 C 109.6875 -65.257812 108.035156 -72.414062 104.734375 -78.78125 C 101.441406 -85.15625 96.875 -90.210938 91.03125 -93.953125 C 85.1875 -97.703125 78.296875 -99.578125 70.359375 -99.578125 C 62.566406 -99.578125 55.707031 -97.703125 49.78125 -93.953125 C 43.863281 -90.210938 39.253906 -85.15625 35.953125 -78.78125 C 32.660156 -72.414062 31.015625 -65.257812 31.015625 -57.3125 C 31.015625 -49.375 32.660156 -42.21875 35.953125 -35.84375 C 39.253906 -29.476562 43.863281 -24.421875 49.78125 -20.671875 C 55.707031 -16.929688 62.566406 -15.0625 70.359375 -15.0625 Z M 70.359375 -15.0625 "/></g></g></g><g fill="#ffffff" fill-opacity="1"><g transform="translate(234.186029, 257.961273)"><g><path d="M 70.125 2.703125 C 59.789062 2.703125 50.539062 0.566406 42.375 -3.703125 C 34.207031 -7.972656 27.835938 -13.929688 23.265625 -21.578125 C 18.691406 -29.222656 16.40625 -38.140625 16.40625 -48.328125 L 16.40625 -114.640625 L 37.3125 -114.640625 L 37.3125 -48.546875 C 37.3125 -41.660156 38.8125 -35.707031 41.8125 -30.6875 C 44.8125 -25.664062 48.816406 -21.804688 53.828125 -19.109375 C 58.847656 -16.410156 64.207031 -15.0625 69.90625 -15.0625 C 75.75 -15.0625 81.179688 -16.410156 86.203125 -19.109375 C 91.222656 -21.804688 95.269531 -25.664062 98.34375 -30.6875 C 101.414062 -35.707031 102.953125 -41.660156 102.953125 -48.546875 L 102.953125 -114.640625 L 123.859375 -114.640625 L 123.859375 -48.328125 C 123.859375 -38.140625 121.535156 -29.222656 116.890625 -21.578125 C 112.242188 -13.929688 105.875 -7.972656 97.78125 -3.703125 C 89.6875 0.566406 80.46875 2.703125 70.125 2.703125 Z M 70.125 2.703125 "/></g></g></g><g fill="#ffffff" fill-opacity="1"><g transform="translate(374.44484, 257.961273)"><g><path d="M 55.515625 0 C 45.328125 0 37.347656 -2.921875 31.578125 -8.765625 C 25.804688 -14.609375 22.921875 -22.550781 22.921875 -32.59375 L 22.921875 -143.40625 L 43.609375 -143.40625 L 43.609375 -33.9375 C 43.609375 -29 44.992188 -25.066406 47.765625 -22.140625 C 50.535156 -19.210938 54.394531 -17.75 59.34375 -17.75 L 82.5 -17.75 L 82.5 0 Z M 3.140625 -96.875 L 3.140625 -114.640625 L 82.9375 -114.640625 L 82.9375 -96.875 Z M 3.140625 -96.875 "/></g></g></g><g fill="#ffffff" fill-opacity="1"><g transform="translate(465.92774, 257.961273)"><g><path d="M 59.796875 45.625 L 59.796875 1.796875 C 51.398438 0.597656 43.941406 -2.207031 37.421875 -6.625 C 30.898438 -11.050781 25.765625 -16.820312 22.015625 -23.9375 C 18.273438 -31.050781 16.40625 -39.179688 16.40625 -48.328125 L 16.40625 -114.640625 L 37.3125 -114.640625 L 37.3125 -48.546875 C 37.3125 -41.660156 38.8125 -35.707031 41.8125 -30.6875 C 44.8125 -25.664062 48.816406 -21.804688 53.828125 -19.109375 C 58.847656 -16.410156 64.207031 -15.0625 69.90625 -15.0625 C 75.75 -15.0625 81.179688 -16.410156 86.203125 -19.109375 C 91.222656 -21.804688 95.269531 -25.664062 98.34375 -30.6875 C 101.414062 -35.707031 102.953125 -41.660156 102.953125 -48.546875 L 102.953125 -114.640625 L 123.625 -114.640625 L 123.625 -48.328125 C 123.625 -39.179688 121.785156 -31.085938 118.109375 -24.046875 C 114.441406 -17.003906 109.347656 -11.269531 102.828125 -6.84375 C 96.316406 -2.425781 88.863281 0.453125 80.46875 1.796875 L 80.46875 45.625 Z M 59.796875 45.625 "/></g></g></g></g></g></svg>