<svg xmlns="http://www.w3.org/2000/svg" xmlns:xlink="http://www.w3.org/1999/xlink" width="500" zoomAndPan="magnify" viewBox="0 0 375 374.999991" height="500" preserveAspectRatio="xMidYMid meet" version="1.0"><defs><g/><clipPath id="ff10b60b25"><path d="M 68.101562 145.871094 L 103.339844 145.871094 L 103.339844 232.871094 L 68.101562 232.871094 Z M 68.101562 145.871094 " clip-rule="nonzero"/></clipPath><clipPath id="c2cec73ec1"><rect x="0" width="200" y="0" height="118"/></clipPath></defs><g clip-path="url(#ff10b60b25)"><path fill="#fffffd" d="M 77.414062 233 C 78.8125 231.347656 80.167969 229.65625 81.507812 227.960938 C 84.617188 224.03125 87.625 220.019531 90.492188 215.910156 C 93.730469 211.269531 96.832031 206.492188 99.417969 201.449219 C 101.148438 198.082031 103.050781 194.511719 103.328125 190.667969 C 103.539062 187.769531 102.691406 184.378906 99.824219 183.09375 C 97.875 182.214844 95.574219 182.28125 93.488281 182.425781 C 89.042969 182.726562 76.632812 185.5625 77.722656 179.941406 C 78.808594 174.324219 92.039062 148.949219 94.03125 145.871094 C 92.65625 147.496094 91.324219 149.15625 90.003906 150.828125 C 86.933594 154.703125 83.960938 158.660156 81.128906 162.710938 C 77.90625 167.316406 74.816406 172.050781 72.222656 177.042969 C 70.105469 181.109375 67.304688 186.460938 68.316406 191.199219 C 68.738281 193.1875 69.71875 194.929688 71.640625 195.785156 C 73.585938 196.652344 75.878906 196.585938 77.957031 196.445312 C 82.40625 196.140625 94.8125 193.308594 93.726562 198.925781 C 92.636719 204.542969 79.40625 229.917969 77.414062 233 " fill-opacity="1" fill-rule="nonzero"/></g><g transform="matrix(1, 0, 0, 1, 108, 126)"><g clip-path="url(#c2cec73ec1)"><g fill="#ffffff" fill-opacity="1"><g transform="translate(0.664582, 84.584684)"><g><path d="M 23.5625 0 C 19.6875 0 16.222656 -0.832031 13.171875 -2.5 C 10.128906 -4.164062 7.722656 -6.410156 5.953125 -9.234375 C 4.191406 -12.054688 3.3125 -15.238281 3.3125 -18.78125 C 3.3125 -22.3125 4.191406 -25.488281 5.953125 -28.3125 C 7.722656 -31.132812 10.128906 -33.378906 13.171875 -35.046875 C 16.222656 -36.722656 19.6875 -37.5625 23.5625 -37.5625 L 27.984375 -37.5625 L 27.984375 -31.734375 L 23.34375 -31.734375 C 20.84375 -31.734375 18.597656 -31.15625 16.609375 -30 C 14.617188 -28.851562 13.046875 -27.296875 11.890625 -25.328125 C 10.734375 -23.367188 10.15625 -21.1875 10.15625 -18.78125 C 10.15625 -16.375 10.734375 -14.1875 11.890625 -12.21875 C 13.046875 -10.257812 14.617188 -8.703125 16.609375 -7.546875 C 18.597656 -6.390625 20.84375 -5.8125 23.34375 -5.8125 L 27.984375 -5.8125 L 27.984375 0 Z M 23.5625 0 "/></g></g></g><g fill="#ffffff" fill-opacity="1"><g transform="translate(31.004613, 84.584684)"><g><path d="M 23.046875 0.890625 C 19.222656 0.890625 15.835938 0.0195312 12.890625 -1.71875 C 9.941406 -3.46875 7.609375 -5.828125 5.890625 -8.796875 C 4.171875 -11.765625 3.3125 -15.09375 3.3125 -18.78125 C 3.3125 -22.457031 4.171875 -25.78125 5.890625 -28.75 C 7.609375 -31.726562 9.941406 -34.085938 12.890625 -35.828125 C 15.835938 -37.566406 19.222656 -38.4375 23.046875 -38.4375 C 26.878906 -38.4375 30.28125 -37.566406 33.25 -35.828125 C 36.21875 -34.085938 38.546875 -31.742188 40.234375 -28.796875 C 41.929688 -25.847656 42.78125 -22.507812 42.78125 -18.78125 C 42.78125 -15.09375 41.929688 -11.765625 40.234375 -8.796875 C 38.546875 -5.828125 36.21875 -3.46875 33.25 -1.71875 C 30.28125 0.0195312 26.878906 0.890625 23.046875 0.890625 Z M 23.046875 -4.9375 C 25.648438 -4.9375 27.910156 -5.546875 29.828125 -6.765625 C 31.742188 -7.992188 33.238281 -9.648438 34.3125 -11.734375 C 35.394531 -13.828125 35.9375 -16.175781 35.9375 -18.78125 C 35.9375 -21.382812 35.394531 -23.726562 34.3125 -25.8125 C 33.238281 -27.894531 31.742188 -29.550781 29.828125 -30.78125 C 27.910156 -32.007812 25.648438 -32.625 23.046875 -32.625 C 20.492188 -32.625 18.25 -32.007812 16.3125 -30.78125 C 14.375 -29.550781 12.863281 -27.894531 11.78125 -25.8125 C 10.695312 -23.726562 10.15625 -21.382812 10.15625 -18.78125 C 10.15625 -16.175781 10.695312 -13.828125 11.78125 -11.734375 C 12.863281 -9.648438 14.375 -7.992188 16.3125 -6.765625 C 18.25 -5.546875 20.492188 -4.9375 23.046875 -4.9375 Z M 23.046875 -4.9375 "/></g></g></g><g fill="#ffffff" fill-opacity="1"><g transform="translate(77.103791, 84.584684)"><g><path d="M 22.96875 0.890625 C 19.582031 0.890625 16.550781 0.191406 13.875 -1.203125 C 11.207031 -2.609375 9.125 -4.5625 7.625 -7.0625 C 6.125 -9.570312 5.375 -12.492188 5.375 -15.828125 L 5.375 -37.5625 L 12.21875 -37.5625 L 12.21875 -15.90625 C 12.21875 -13.644531 12.707031 -11.691406 13.6875 -10.046875 C 14.675781 -8.398438 15.992188 -7.132812 17.640625 -6.25 C 19.285156 -5.375 21.039062 -4.9375 22.90625 -4.9375 C 24.820312 -4.9375 26.597656 -5.375 28.234375 -6.25 C 29.878906 -7.132812 31.207031 -8.398438 32.21875 -10.046875 C 33.226562 -11.691406 33.734375 -13.644531 33.734375 -15.90625 L 33.734375 -37.5625 L 40.578125 -37.5625 L 40.578125 -15.828125 C 40.578125 -12.492188 39.816406 -9.570312 38.296875 -7.0625 C 36.773438 -4.5625 34.6875 -2.609375 32.03125 -1.203125 C 29.382812 0.191406 26.363281 0.890625 22.96875 0.890625 Z M 22.96875 0.890625 "/></g></g></g><g fill="#ffffff" fill-opacity="1"><g transform="translate(123.055703, 84.584684)"><g><path d="M 18.1875 0 C 14.851562 0 12.238281 -0.957031 10.34375 -2.875 C 8.457031 -4.789062 7.515625 -7.390625 7.515625 -10.671875 L 7.515625 -46.984375 L 14.28125 -46.984375 L 14.28125 -11.125 C 14.28125 -9.5 14.734375 -8.207031 15.640625 -7.25 C 16.554688 -6.289062 17.820312 -5.8125 19.4375 -5.8125 L 27.03125 -5.8125 L 27.03125 0 Z M 1.03125 -31.734375 L 1.03125 -37.5625 L 27.171875 -37.5625 L 27.171875 -31.734375 Z M 1.03125 -31.734375 "/></g></g></g><g fill="#ffffff" fill-opacity="1"><g transform="translate(153.027541, 84.584684)"><g><path d="M 19.59375 14.953125 L 19.59375 0.59375 C 16.84375 0.195312 14.398438 -0.722656 12.265625 -2.171875 C 10.128906 -3.617188 8.445312 -5.507812 7.21875 -7.84375 C 5.988281 -10.175781 5.375 -12.835938 5.375 -15.828125 L 5.375 -37.5625 L 12.21875 -37.5625 L 12.21875 -15.90625 C 12.21875 -13.644531 12.707031 -11.691406 13.6875 -10.046875 C 14.675781 -8.398438 15.992188 -7.132812 17.640625 -6.25 C 19.285156 -5.375 21.039062 -4.9375 22.90625 -4.9375 C 24.820312 -4.9375 26.597656 -5.375 28.234375 -6.25 C 29.878906 -7.132812 31.207031 -8.398438 32.21875 -10.046875 C 33.226562 -11.691406 33.734375 -13.644531 33.734375 -15.90625 L 33.734375 -37.5625 L 40.5 -37.5625 L 40.5 -15.828125 C 40.5 -12.835938 39.894531 -10.1875 38.6875 -7.875 C 37.488281 -5.570312 35.820312 -3.695312 33.6875 -2.25 C 31.550781 -0.800781 29.109375 0.144531 26.359375 0.59375 L 26.359375 14.953125 Z M 19.59375 14.953125 "/></g></g></g></g></g></svg>